<?xml version="1.0" standalone="no"?>
<!DOCTYPE svg PUBLIC "-//W3C//DTD SVG 20010904//EN"
 "http://www.w3.org/TR/2001/REC-SVG-20010904/DTD/svg10.dtd">
<svg version="1.0" xmlns="http://www.w3.org/2000/svg"
 width="512.000000pt" height="512.000000pt" viewBox="0 0 512.000000 512.000000"
 preserveAspectRatio="xMidYMid meet">

<g transform="translate(0.000000,512.000000) scale(0.100000,-0.100000)"
fill="#000000" stroke="none">
<path d="M1191 4839 c-114 -13 -215 -44 -336 -104 -210 -102 -368 -260 -470
-470 -62 -125 -90 -220 -105 -350 -13 -122 -13 -2588 0 -2710 15 -130 43 -225
104 -350 102 -208 263 -369 471 -471 125 -61 220 -89 350 -104 126 -14 2584
-14 2712 1 355 39 663 255 819 574 61 125 89 220 104 350 13 122 13 2588 0
2710 -15 130 -43 225 -104 350 -156 319 -464 535 -819 574 -117 13 -2614 13
-2726 0z m1600 -939 c215 -21 436 -77 569 -145 235 -119 448 -346 553 -589 83
-194 131 -475 125 -739 -3 -130 -5 -145 -26 -175 -33 -45 -75 -64 -157 -71
l-70 -5 54 -7 c83 -11 138 -62 148 -137 8 -61 0 -80 -89 -213 -144 -216 -351
-398 -542 -478 -234 -97 -511 -138 -876 -128 -219 6 -348 22 -499 62 -236 63
-446 200 -597 390 -224 279 -316 573 -301 960 9 226 47 385 138 570 188 383
561 635 1039 700 117 16 392 18 531 5z"/>
<path d="M2330 3743 c-153 -16 -360 -73 -475 -130 -163 -82 -346 -247 -439
-395 -117 -189 -175 -406 -176 -657 0 -369 129 -682 376 -909 215 -198 495
-282 944 -282 428 0 720 74 928 233 87 68 215 207 282 309 33 50 58 93 56 95
-2 2 -194 21 -427 43 l-423 39 -72 -69 c-75 -73 -120 -99 -219 -125 -185 -48
-389 33 -482 193 -35 60 -65 160 -58 194 14 61 -30 58 894 58 l844 0 -6 178
c-9 274 -47 452 -132 629 -148 305 -410 495 -780 567 -160 31 -478 46 -635 29z
m415 -546 c111 -52 185 -149 221 -291 19 -76 10 -116 -32 -135 -17 -7 -137
-11 -377 -11 -307 0 -355 2 -375 16 -35 24 -44 58 -30 112 39 160 133 272 271
323 81 30 241 23 322 -14z"/>
<path d="M2460 3054 c-41 -18 -96 -68 -116 -106 l-15 -28 231 0 c186 0 230 3
230 13 0 28 -60 95 -102 116 -54 26 -174 29 -228 5z"/>
<path d="M2340 2168 c0 -6 20 -31 45 -54 100 -96 278 -96 393 0 18 16 37 37
43 47 9 18 2 19 -236 19 -180 0 -245 -3 -245 -12z"/>
</g>
</svg>
